<svg width="41" height="51" viewBox="0 0 41 51" fill="none" xmlns="http://www.w3.org/2000/svg">
<g id="Layer_1" clip-path="url(#clip0_8_766)">
<path id="Vector" d="M39.8061 7.34521C41.9293 3.66847 40.8073 1.86463 38.7963 0.708094C36.7939 -0.448439 34.6708 -0.526116 32.5389 3.15062C31.1407 5.57589 30.8128 9.805 29.7253 12.1008C29.0089 13.6285 27.136 14.8195 26.3765 16.1487C24.8402 18.8156 25.6515 20.1189 27.1101 20.956C28.5601 21.7932 30.0964 21.845 31.6413 19.1867C32.4095 17.8662 32.5044 15.6481 33.4711 14.2585C34.9124 12.1785 38.4079 9.77048 39.8147 7.34521H39.8061Z" fill="#16B6C6"/>
<path id="Vector_2" opacity="0.3" d="M27.5848 16.839C28.353 15.5185 30.2172 14.3188 30.9336 12.7911C32.0211 10.4953 32.3491 6.27483 33.7473 3.84093C35.6547 0.535319 37.5621 0.267763 39.3832 1.07906C39.202 0.949599 39.0034 0.820136 38.7963 0.699305C36.7939 -0.457228 34.6708 -0.534906 32.5389 3.14183C31.1407 5.5671 30.8128 9.79621 29.7253 12.092C29.0089 13.6197 27.136 14.8107 26.3765 16.1399C24.8402 18.8068 25.6515 20.1101 27.1101 20.9473C27.3173 21.0681 27.5244 21.1717 27.7402 21.2493C26.6786 20.4035 26.2643 19.1175 27.5848 16.8303V16.839Z" fill="white"/>
<path id="Vector_3" d="M16.2263 41.7902C17.8144 39.037 21.3358 38.1048 24.0976 39.6929C26.8595 41.2896 27.8089 44.811 26.2208 47.5556C24.6327 50.3088 21.1114 51.2496 18.3495 49.6529C15.5876 48.0562 14.6382 44.5348 16.2263 41.7816V41.7902Z" fill="#16B6C6"/>
<path id="Vector_4" opacity="0.3" d="M16.7265 41.7129C17.883 39.7105 20.4378 39.0287 22.4487 40.1938C24.4511 41.3504 25.1416 43.9137 23.9937 45.9075C22.8371 47.9098 20.2738 48.5916 18.2714 47.4351C16.2604 46.2786 15.57 43.7152 16.7265 41.7129Z" fill="white"/>
<path id="Vector_5" d="M30.0966 47.4873C29.2335 42.9647 31.8832 36.6038 31.8832 36.6038L34.3689 32.297C37.7694 26.4021 35.7412 18.8588 29.8204 15.441C23.9083 12.0231 16.3563 14.0341 12.9558 19.929L10.4701 24.2358C10.4701 24.2358 6.29277 29.7164 1.93419 31.2268C-0.422025 32.0467 -0.689581 32.0208 1.48539 33.2723L15.0185 41.0832L28.5517 48.8941C30.7181 50.1456 30.5713 49.9384 30.0966 47.4786V47.4873Z" fill="#FDC00F"/>
<path id="Vector_6" opacity="0.3" d="M13.4823 26.5572L16.4685 21.3873C18.7557 17.4258 22.6137 14.9228 26.8083 14.2151C21.5435 12.8083 15.804 15.0091 12.9558 19.9373L10.4701 24.2441C10.4701 24.2441 6.29277 29.7247 1.93419 31.2351C-0.422025 32.055 -0.689581 32.0291 1.48539 33.2806L3.91066 34.6788C8.89065 32.5643 13.4823 26.5486 13.4823 26.5486V26.5572Z" fill="white"/>
<path id="Vector_7" opacity="0.2" d="M28.3696 35.1451L31.3559 29.9752C33.6431 26.0136 33.8761 21.422 32.4003 17.4346C36.2496 21.2926 37.2163 27.3687 34.3681 32.2969L31.8824 36.6037C31.8824 36.6037 29.2241 42.9646 30.0958 47.4958C30.5619 49.9469 30.7172 50.1627 28.5509 48.9112L26.1256 47.513C25.4697 42.1447 28.3783 35.1537 28.3783 35.1537L28.3696 35.1451Z" fill="black"/>
</g>
<defs>
<clipPath id="clip0_8_766">
<rect width="40.9447" height="50.43" fill="white"/>
</clipPath>
</defs>
</svg>
