<svg width="39" height="33" viewBox="0 0 39 33" fill="none" xmlns="http://www.w3.org/2000/svg">
<g id="facebook-black">
<path id="Facebook" d="M20.5107 32.9658H2.11939C0.948541 32.9658 0 32.151 0 31.1463V1.81945C0 0.814428 0.94869 0 2.11939 0H36.2809C37.4513 0 38.4001 0.814428 38.4001 1.81945V31.1463C38.4001 32.1511 37.4511 32.9658 36.2809 32.9658H26.4955V20.1996H31.4869L32.2343 15.2244H26.4955V12.0481C26.4955 10.6076 26.9614 9.62603 29.3675 9.62603L32.4363 9.62488V5.17501C31.9056 5.11438 30.0839 4.97892 27.9645 4.97892C23.5399 4.97892 20.5107 7.29748 20.5107 11.5554V15.2244H15.5065V20.1996H20.5107V32.9658Z" fill="#F04C4B"/>
</g>
</svg>
