<svg width="71" height="71" viewBox="0 0 71 71" fill="none" xmlns="http://www.w3.org/2000/svg">
<g id="Component 10">
<circle id="Ellipse 8333" cx="35.5" cy="35.5" r="35.5" fill="#2EB39A"/>
<path id="Vector" d="M29.2732 46.0625C28.9374 46.0619 28.6076 45.9738 28.3162 45.8071C27.6599 45.4352 27.252 44.7133 27.252 43.9297V28.0703C27.252 27.2844 27.6599 26.5647 28.3162 26.1929C28.6145 26.0214 28.9535 25.9332 29.2976 25.9375C29.6417 25.9419 29.9784 26.0385 30.2723 26.2175L43.8266 34.3309C44.1091 34.508 44.342 34.754 44.5034 35.0458C44.6648 35.3375 44.7495 35.6655 44.7495 35.9989C44.7495 36.3323 44.6648 36.6603 44.5034 36.952C44.342 37.2438 44.1091 37.4897 43.8266 37.6669L30.2702 45.7825C29.9693 45.9643 29.6247 46.0611 29.2732 46.0625Z" fill="white"/>
</g>
</svg>
