<svg width="60" height="34" viewBox="0 0 60 34" fill="none" xmlns="http://www.w3.org/2000/svg">
<g id="Layer_1" clip-path="url(#clip0_8_774)">
<path id="Vector" d="M13.9551 12.8145V28.1184C13.9551 29.8676 26.2537 33.5973 29.7522 33.5973C33.2506 33.5973 45.5493 29.8676 45.5493 28.1184V12.8145H13.9551Z" fill="#184F78"/>
<path id="Vector_2" opacity="0.3" d="M13.9551 19.9047L29.7599 25.8691L45.557 19.9047V14.3564H13.9551V19.9047Z" fill="black"/>
<path id="Vector_3" d="M29.7602 0L0 11.2352L29.7602 22.4627L59.5126 11.2352L29.7602 0Z" fill="#184F78"/>
<path id="Vector_4" d="M29.7602 22.4628L0 11.2354V12.7765L29.7602 24.004L59.5126 12.7765V11.2354L29.7602 22.4628Z" fill="#467293"/>
<g id="Group">
<path id="Vector_5" d="M47.4385 25.2139H46.1131C46.1131 25.2139 43.2003 29.3288 45.119 33.4515H48.4403C50.3591 29.3288 47.4462 25.2139 47.4462 25.2139H47.4385Z" fill="#FDC00F"/>
<g id="Group_2">
<path id="Vector_6" d="M47.8224 32.7734C47.8918 32.3958 47.8609 31.9412 47.884 31.4711C47.8918 31.2323 47.884 30.9857 47.8609 30.7391C47.8378 30.4925 47.8147 30.2382 47.7993 29.9916C47.7839 29.7373 47.7299 29.4984 47.6914 29.2518C47.6452 29.013 47.6066 28.7741 47.5681 28.5506C47.4448 28.1037 47.3678 27.6798 47.2445 27.3408C47.0364 26.6395 46.8438 26.208 46.8438 26.208C46.8438 26.208 47.0056 26.6627 47.1597 27.3793C47.2522 27.7338 47.3061 28.1576 47.3909 28.6045C47.414 28.828 47.4371 29.0669 47.4679 29.3058C47.491 29.5447 47.5296 29.7835 47.5219 30.0301C47.5219 30.2767 47.5219 30.5156 47.5296 30.7545C47.545 30.9934 47.5296 31.2245 47.4987 31.4557C47.4448 31.9027 47.4525 32.3265 47.3523 32.6733C47.2753 32.9969 47.2213 33.2589 47.1751 33.4593H47.7299C47.7607 33.2666 47.7916 33.0431 47.8301 32.7811L47.8224 32.7734Z" fill="#FED96F"/>
<path id="Vector_7" d="M46.2039 32.6654C46.1114 32.3264 46.1191 31.8949 46.0574 31.4479C46.0266 31.2244 46.0189 30.9856 46.0266 30.7467C46.0266 30.5078 46.0266 30.2612 46.0343 30.0223C46.0343 29.7757 46.0651 29.5368 46.0883 29.298C46.1114 29.0591 46.1422 28.8202 46.1653 28.5967C46.2501 28.1498 46.304 27.7183 46.3965 27.3715C46.5506 26.6548 46.7124 26.2002 46.7124 26.2002C46.7124 26.2002 46.5198 26.6317 46.3117 27.333C46.1884 27.6797 46.1114 28.1036 45.9881 28.5428C45.9496 28.774 45.9033 29.0051 45.8648 29.244C45.8263 29.4906 45.7646 29.7295 45.7569 29.9838C45.7338 30.2381 45.7107 30.4847 45.6876 30.7313C45.6567 30.9779 45.6567 31.2244 45.6644 31.4633C45.6876 31.9411 45.649 32.3957 45.7261 32.7656C45.7646 33.0353 45.7954 33.2511 45.8263 33.4437H46.3811C46.3348 33.2434 46.2732 32.9814 46.2039 32.6577V32.6654Z" fill="#FED96F"/>
<path id="Vector_8" d="M48.7555 32.1721C48.794 31.9332 48.8171 31.6866 48.8094 31.4169C48.8248 31.1549 48.8094 30.8852 48.7786 30.6155C48.7632 30.3458 48.6938 30.0761 48.6553 29.8141C48.4241 28.7507 47.9695 27.826 47.5919 27.1864C47.2066 26.5468 46.8906 26.1923 46.8906 26.1923C46.8906 26.1923 47.1757 26.5853 47.5148 27.2557C47.8462 27.9261 48.2315 28.8817 48.3702 29.8989C48.3933 30.1532 48.4472 30.4074 48.4395 30.6617C48.4472 30.916 48.4549 31.1549 48.4241 31.3938C48.4164 31.6327 48.3779 31.8562 48.3316 32.0565C48.2931 32.2646 48.2469 32.4649 48.1852 32.6344C48.085 32.9889 47.954 33.2509 47.8539 33.4359C47.8539 33.4359 47.8539 33.4436 47.8462 33.4513H48.4395C48.478 33.3665 48.5089 33.2817 48.5397 33.1893C48.5705 33.0737 48.609 32.9658 48.6399 32.8348C48.7015 32.6344 48.74 32.411 48.7632 32.1721H48.7555Z" fill="#FED96F"/>
<path id="Vector_9" d="M46.7756 26.1924L46.5059 33.4436H47.0453L46.7756 26.1924Z" fill="#FED96F"/>
<path id="Vector_10" d="M45.6961 33.4359C45.5959 33.251 45.4726 32.989 45.3647 32.6345C45.2954 32.465 45.2491 32.2723 45.2183 32.0566C45.1644 31.8485 45.1335 31.625 45.1258 31.3939C45.095 31.155 45.095 30.9161 45.1104 30.6618C45.1104 30.4075 45.1566 30.1609 45.1798 29.8989C45.3262 28.8817 45.7115 27.9262 46.0428 27.2558C46.3819 26.5854 46.667 26.1924 46.667 26.1924C46.667 26.1924 46.3588 26.5546 45.9658 27.1864C45.5882 27.826 45.1335 28.7507 44.9024 29.8142C44.8561 30.0839 44.7868 30.3459 44.7791 30.6156C44.7482 30.8853 44.7328 31.155 44.7482 31.417C44.7482 31.679 44.7636 31.9333 44.8022 32.1722C44.833 32.411 44.8638 32.6345 44.9255 32.8349C44.9563 32.9659 44.9948 33.0737 45.0256 33.1893C45.0642 33.2741 45.0873 33.3589 45.1258 33.4513H45.7192C45.7192 33.4513 45.7192 33.4436 45.7115 33.4359H45.6961Z" fill="#FED96F"/>
</g>
</g>
<path id="Vector_11" d="M45.2715 25.2136C45.2715 24.3814 45.9419 23.7109 46.7741 23.7109C47.6064 23.7109 48.2768 24.3814 48.2768 25.2136C48.2768 26.0458 47.6064 26.7162 46.7741 26.7162C45.9419 26.7162 45.2715 26.0458 45.2715 25.2136Z" fill="#FED96F"/>
<path id="Vector_12" opacity="0.3" d="M29.7607 14.0406C32.3738 14.0406 34.4921 12.7847 34.4921 11.2356C34.4921 9.68648 32.3738 8.43066 29.7607 8.43066C27.1476 8.43066 25.0293 9.68648 25.0293 11.2356C25.0293 12.7847 27.1476 14.0406 29.7607 14.0406Z" fill="black"/>
<path id="Vector_13" d="M34.3921 11.7979C34.2302 12.2602 33.8835 12.6763 33.3903 13.0231L33.3672 13.1001L45.9972 16.8375V25.2138H47.5383V15.6893L34.3844 11.8056L34.3921 11.7979Z" fill="#FDC00F"/>
<path id="Vector_14" d="M25.0293 10.8426C25.0293 9.50949 26.8556 8.43066 29.098 8.43066C31.3404 8.43066 33.1667 9.50949 33.1667 10.8426C33.1667 12.1757 31.3404 13.2546 29.098 13.2546C26.8556 13.2546 25.0293 12.1757 25.0293 10.8426Z" fill="#184F78"/>
</g>
<defs>
<clipPath id="clip0_8_774">
<rect width="59.5126" height="33.59" fill="white"/>
</clipPath>
</defs>
</svg>
