<svg width="39" height="29" viewBox="0 0 39 29" fill="none" xmlns="http://www.w3.org/2000/svg">
<g id="twitter-black">
<path id="Twitter" d="M38.8005 3.99968C37.3895 4.55129 35.8704 4.92433 34.2769 5.091C35.9042 4.23382 37.1529 2.87463 37.7412 1.2555C36.2175 2.04919 34.5338 2.6266 32.7352 2.93614C31.3017 1.58885 29.2529 0.747543 26.9854 0.747543C22.6376 0.747543 19.1102 3.85285 19.1102 7.68239C19.1102 8.22607 19.1778 8.75387 19.3131 9.26183C12.7654 8.97213 6.96156 6.21407 3.07354 2.01348C2.39511 3.0413 2.00744 4.23382 2.00744 5.50372C2.00744 7.90859 3.39811 10.0317 5.51229 11.2758C4.22305 11.2421 3.00593 10.9266 1.94208 10.4107V10.496C1.94208 13.8573 4.65805 16.661 8.26433 17.2959C7.60393 17.4586 6.90747 17.54 6.18847 17.54C5.68133 17.54 5.18547 17.4983 4.70539 17.417C5.70838 20.1711 8.61595 22.1771 12.0644 22.2307C9.36876 24.0919 5.96984 25.2011 2.28016 25.2011C1.64456 25.2011 1.01571 25.1693 0.400391 25.1058C3.88721 27.0702 8.02992 28.2191 12.4769 28.2191C26.9697 28.2191 34.8922 17.6531 34.8922 8.48799C34.8922 8.18638 34.8854 7.88478 34.8719 7.58913C36.4113 6.61091 37.7479 5.39062 38.8005 3.99968Z" fill="#F04C4B"/>
</g>
</svg>
