<svg width="40" height="30" viewBox="0 0 40 30" fill="none" xmlns="http://www.w3.org/2000/svg">
<g id="vimeo-black">
<path id="Vimeo" d="M39.1816 7.41645C39.0145 10.6673 36.3999 15.1111 31.3559 20.75C26.1359 26.6463 21.7128 29.5925 18.098 29.5925C15.8627 29.5925 13.9684 27.8 12.4218 24.2032C11.3855 20.9033 10.3559 17.6033 9.32182 14.3132C8.17033 10.7145 6.93755 8.91608 5.61898 8.91608C5.33224 8.91608 4.33202 9.44085 2.60704 10.4924L0.800781 8.466C2.69284 7.0214 4.5578 5.57091 6.39793 4.12435C8.91767 2.22573 10.812 1.22926 12.0764 1.12509C15.0567 0.873514 16.8946 2.6483 17.5877 6.44356C18.326 10.5415 18.8453 13.0887 19.1321 14.0871C19.9946 17.4834 20.9383 19.1776 21.9724 19.1776C22.7739 19.1776 23.9796 18.0809 25.5872 15.8855C27.1948 13.6862 28.0505 12.0156 28.1679 10.8638C28.3982 8.96522 27.538 8.02181 25.5872 8.02181C24.6683 8.02181 23.72 8.19083 22.7469 8.54461C24.6434 3.20059 28.2559 0.602284 33.5934 0.753623C37.5469 0.849929 39.4141 3.0748 39.1816 7.41645Z" fill="#F04C4B"/>
</g>
</svg>
