<svg width="39" height="24" viewBox="0 0 39 24" fill="none" xmlns="http://www.w3.org/2000/svg">
<g id="youtube-black">
<path id="Youtube" fill-rule="evenodd" clip-rule="evenodd" d="M36.6889 2.23673C37.8397 3.24413 38.2153 5.5318 38.2153 5.5318C38.2153 5.5318 38.5993 8.2189 38.5993 10.905V13.424C38.5993 16.1111 38.2153 18.7971 38.2153 18.7971C38.2153 18.7971 37.8397 21.0848 36.6889 22.0922C35.3732 23.2839 33.9143 23.4071 33.0897 23.4767C32.999 23.4843 32.916 23.4913 32.8417 23.4991C27.4681 23.8352 19.3993 23.8456 19.3993 23.8456C19.3993 23.8456 9.41525 23.7667 6.34324 23.5115C6.19769 23.488 6.02125 23.4697 5.82144 23.449C4.84836 23.3481 3.32104 23.1897 2.10842 22.0922C0.957621 21.0848 0.58322 18.7971 0.58322 18.7971C0.58322 18.7971 0.199219 16.1111 0.199219 13.424V10.905C0.199219 8.2189 0.58322 5.5318 0.58322 5.5318C0.58322 5.5318 0.957621 3.24413 2.10842 2.23673C3.42706 1.04332 4.88732 0.921517 5.712 0.852731C5.80142 0.845273 5.88336 0.838438 5.95684 0.830929C11.3305 0.494781 19.3909 0.494781 19.3909 0.494781H19.4077C19.4077 0.494781 27.4681 0.494781 32.8417 0.830929C32.9152 0.838449 32.9972 0.845293 33.0867 0.852764C33.9107 0.921557 35.3716 1.04351 36.6889 2.23673ZM15.4336 7.14814L15.4348 16.4762L25.8088 11.8283L15.4336 7.14814Z" fill="#F04C4B"/>
</g>
</svg>
